<?xml version="1.0" standalone="no"?>
<!DOCTYPE svg PUBLIC "-//W3C//DTD SVG 20010904//EN"
 "http://www.w3.org/TR/2001/REC-SVG-20010904/DTD/svg10.dtd">
<svg version="1.0" xmlns="http://www.w3.org/2000/svg"
 width="460.000000pt" height="460.000000pt" viewBox="0 0 460.000000 460.000000"
 preserveAspectRatio="xMidYMid meet">
<metadata>
Created by potrace 1.14, written by Peter Selinger 2001-2017
</metadata>
<g transform="translate(0.000000,460.000000) scale(0.100000,-0.100000)"
fill="#000000" stroke="none">
<path d="M1166 3414 c-622 -623 -1134 -1140 -1138 -1149 -8 -13 32 -15 372
-15 l380 0 0 -1090 0 -1090 1510 0 1510 0 0 1090 0 1090 390 0 c215 0 390 3
390 8 0 14 -63 79 -446 463 l-384 385 0 612 0 612 -380 0 -380 0 0 -231 0
-231 -341 341 c-187 188 -343 341 -347 340 -4 0 -515 -511 -1136 -1135z"/>
</g>
</svg>
