<?xml version="1.0" standalone="no"?>
<!DOCTYPE svg PUBLIC "-//W3C//DTD SVG 20010904//EN"
 "http://www.w3.org/TR/2001/REC-SVG-20010904/DTD/svg10.dtd">
<svg version="1.0" xmlns="http://www.w3.org/2000/svg"
 width="500.000000pt" height="500.000000pt" viewBox="0 0 500.000000 500.000000"
 preserveAspectRatio="xMidYMid meet">
<metadata>
Created by potrace 1.14, written by Peter Selinger 2001-2017
</metadata>
<g transform="translate(0.000000,500.000000) scale(0.100000,-0.100000)"
fill="#000000" stroke="none">
<path d="M2481 4743 c-13 -16 -526 -532 -1140 -1148 l-1116 -1120 383 -3 382
-2 0 -1090 0 -1090 1510 0 1510 0 0 1090 0 1090 390 0 c301 0 390 3 390 12 0
10 -2224 2248 -2265 2280 -15 12 -20 10 -44 -19z m1259 -3433 l0 -750 -125 0
-125 0 0 320 0 320 -290 0 -290 0 0 -325 0 -325 -125 0 -125 0 0 650 0 650
-210 0 -210 0 0 -660 0 -660 -125 0 -125 0 0 660 0 660 -225 0 -225 0 0 100 0
100 685 0 685 0 0 -315 0 -315 290 0 290 0 0 320 0 320 125 0 125 0 0 -750z"/>
</g>
</svg>
